<svg xmlns="http://www.w3.org/2000/svg" viewBox="0 0 512 512" fill="none">
  <defs>
    <linearGradient id="mark-bg" x1="56" y1="40" x2="456" y2="464" gradientUnits="userSpaceOnUse">
      <stop stop-color="#0D1731"/>
      <stop offset="1" stop-color="#050816"/>
    </linearGradient>
    <linearGradient id="mark-cyan" x1="117" y1="92" x2="360" y2="372" gradientUnits="userSpaceOnUse">
      <stop stop-color="#91F9FF"/>
      <stop offset="1" stop-color="#2FD4E4"/>
    </linearGradient>
    <linearGradient id="mark-wave" x1="290" y1="150" x2="410" y2="350" gradientUnits="userSpaceOnUse">
      <stop stop-color="#FFE197"/>
      <stop offset="1" stop-color="#F7A74E"/>
    </linearGradient>
    <filter id="glow" x="0" y="0" width="512" height="512" filterUnits="userSpaceOnUse" color-interpolation-filters="sRGB">
      <feGaussianBlur stdDeviation="18" result="blur"/>
      <feBlend in="SourceGraphic" in2="blur"/>
    </filter>
  </defs>
  <rect x="24" y="24" width="464" height="464" rx="132" fill="url(#mark-bg)"/>
  <rect x="24" y="24" width="464" height="464" rx="132" stroke="#79EFFF" stroke-opacity=".18"/>
  <circle cx="204" cy="256" r="122" stroke="url(#mark-cyan)" stroke-width="22" stroke-opacity=".92"/>
  <circle cx="204" cy="256" r="76" stroke="#243A65" stroke-width="18"/>
  <circle cx="204" cy="256" r="22" fill="#9AFAFF"/>
  <g filter="url(#glow)">
    <rect x="286" y="140" width="20" height="232" rx="10" fill="url(#mark-wave)"/>
    <rect x="324" y="102" width="20" height="308" rx="10" fill="#93FBFF"/>
    <rect x="362" y="164" width="20" height="184" rx="10" fill="#6EE7FF"/>
  </g>
  <path d="M133 256C133 216.788 164.788 185 204 185" stroke="#A6FCFF" stroke-width="16" stroke-linecap="round" stroke-opacity=".9"/>
  <path d="M133 256C133 295.212 164.788 327 204 327" stroke="#6BE6FF" stroke-width="16" stroke-linecap="round" stroke-opacity=".84"/>
  <path d="M92 256C92 194.144 142.144 144 204 144" stroke="#38527F" stroke-width="12" stroke-linecap="round"/>
  <path d="M92 256C92 317.856 142.144 368 204 368" stroke="#38527F" stroke-width="12" stroke-linecap="round"/>
</svg>
